0
SECTION
2
HEADER
9
$INSUNITS
70
4
9
$ACADVER
1
AC1014
9
$HANDSEED
5
FFFF
0
ENDSEC
0
SECTION
2
TABLES
0
TABLE
2
VPORT
5
8
100
AcDbSymbolTable
0
ENDTAB
0
TABLE
2
LTYPE
5
5
100
AcDbSymbolTable
0
LTYPE
5
14
100
AcDbSymbolTableRecord
100
AcDbLinetypeTableRecord
2
BYBLOCK
70
0
0
LTYPE
5
15
100
AcDbSymbolTableRecord
100
AcDbLinetypeTableRecord
2
BYLAYER
70
0
0
ENDTAB
0
TABLE
2
LAYER
5
2
100
AcDbSymbolTable
70
2
0
LAYER
5
50
100
AcDbSymbolTableRecord
100
AcDbLayerTableRecord
2
0
70
0
6
CONTINUOUS
0
ENDTAB
0
TABLE
2
STYLE
5
3
100
AcDbSymbolTable
70
1
0
STYLE
5
11
100
AcDbSymbolTableRecord
100
AcDbTextStyleTableRecord
2
STANDARD
70
0
0
ENDTAB
0
TABLE
2
VIEW
5
6
100
AcDbSymbolTable
70
0
0
ENDTAB
0
TABLE
2
UCS
5
7
100
AcDbSymbolTable
70
0
0
ENDTAB
0
TABLE
2
APPID
5
9
100
AcDbSymbolTable
70
2
0
APPID
5
12
100
AcDbSymbolTableRecord
100
AcDbRegAppTableRecord
2
ACAD
70
0
0
ENDTAB
0
TABLE
2
DIMSTYLE
5
A
100
AcDbSymbolTable
70
1
0
ENDTAB
0
TABLE
2
BLOCK_RECORD
5
1
100
AcDbSymbolTable
70
1
0
BLOCK_RECORD
5
1F
100
AcDbSymbolTableRecord
100
AcDbBlockTableRecord
2
*MODEL_SPACE
0
BLOCK_RECORD
5
1B
100
AcDbSymbolTableRecord
100
AcDbBlockTableRecord
2
*PAPER_SPACE
0
ENDTAB
0
ENDSEC
0
SECTION
2
BLOCKS
0
BLOCK
5
20
100
AcDbEntity
100
AcDbBlockBegin
2
*MODEL_SPACE
0
ENDBLK
5
21
100
AcDbEntity
100
AcDbBlockEnd
0
BLOCK
5
1C
100
AcDbEntity
100
AcDbBlockBegin
2
*PAPER_SPACE
0
ENDBLK
5
1D
100
AcDbEntity
100
AcDbBlockEnd
0
ENDSEC
0
SECTION
2
ENTITIES
0
LWPOLYLINE
5
100
100
AcDbEntity
8
0
100
AcDbPolyline
90
8
70
1
43
0.0
10
-67.919852157452965
20
77.246693527641042
42
-0.41421356237301088
10
-67.332535850361808
20
76.659377220549857
10
-67.332535850361836
20
56.690622779450159
42
-0.41421356237300205
10
-67.919852157452965
20
56.103306472358987
10
-74.967647842547009
20
56.10330647235898
42
-0.41421356237312607
10
-75.554964149638195
20
56.690622779450159
10
-75.554964149638195
20
76.659377220549857
42
-0.41421356237312162
10
-74.967647842547009
20
77.246693527641014
0
LWPOLYLINE
5
101
100
AcDbEntity
8
0
100
AcDbPolyline
90
8
70
1
43
0.0
10
-167.91985215745302
20
77.246693527641
10
-174.96764784254702
20
77.246693527641028
42
0.41421356237305956
10
-175.55496414963815
20
76.659377220549857
10
-175.55496414963818
20
56.690622779450159
42
0.41421356237301971
10
-174.96764784254705
20
56.103306472358987
10
-167.91985215745299
20
56.103306472358987
42
0.41421356237312162
10
-167.33253585036181
20
56.690622779450159
10
-167.33253585036181
20
76.659377220549857
42
0.41421356237309503
0
ARC
5
102
100
AcDbEntity
8
0
100
AcDbCircle
10
-247.67050392369316
20
16.430874057289071
30
0
40
2.1499999999999986
210
0
220
0
230
1
100
AcDbArc
50
-180
51
0
0
LINE
5
103
100
AcDbEntity
8
0
100
AcDbLine
10
-249.82050392369317
20
16.430874057286747
30
0
11
-249.82050392369931
21
22.10910757082139
31
0
0
ARC
5
104
100
AcDbEntity
8
0
100
AcDbCircle
10
-247.67050392369302
20
22.109107602524766
30
0
40
2.1499999999999986
210
0
220
0
230
1
100
AcDbArc
50
0
51
180.00000085377366
0
LINE
5
105
100
AcDbEntity
8
0
100
AcDbLine
10
-245.52050392369301
20
22.109107602524688
30
0
11
-245.52050392369318
21
16.430874057291398
31
0
0
LWPOLYLINE
5
106
100
AcDbEntity
8
0
100
AcDbPolyline
90
6
70
1
43
0.0
10
-101.98145250115448
20
-12.087500000000059
10
-98.401880832178804
20
-12.087500000000059
10
-96.612094997690988
20
-8.987500000000054
10
-98.401880832178819
20
-5.8875000000000499
10
-101.98145250115451
20
-5.8875000000000499
10
-103.77123833564235
20
-8.987500000000054
0
LWPOLYLINE
5
107
100
AcDbEntity
8
0
100
AcDbPolyline
90
6
70
1
43
0.0
10
-211.16061916782118
20
-12.08750000000013
10
-207.58104749884552
20
-12.08750000000013
10
-205.79126166435768
20
-8.9875000000001073
10
-207.58104749884549
20
-5.887500000000121
10
-211.16061916782118
20
-5.887500000000121
10
-212.950405002309
20
-8.9875000000001251
0
LWPOLYLINE
5
108
100
AcDbEntity
8
0
100
AcDbPolyline
90
6
70
1
43
0.0
10
5.4079283310243387
20
-8.9875000000000007
10
7.1977141655121821
20
-12.087500000000006
10
10.777285834487863
20
-12.087500000000006
10
12.5670716689757
20
-8.9875000000000007
10
10.777285834487866
20
-5.8874999999999966
10
7.1977141655121795
20
-5.8874999999999966
0
LWPOLYLINE
5
109
100
AcDbEntity
8
0
100
AcDbPolyline
90
6
70
1
43
0.0
10
-320.33978583448794
20
-5.8875000000001743
10
-322.12957166897576
20
-8.9875000000001783
10
-320.33978583448794
20
-12.087500000000183
10
-316.7602141655122
20
-12.087500000000183
10
-314.97042833102432
20
-8.9875000000001783
10
-316.76021416551214
20
-5.8875000000001743
0
LWPOLYLINE
5
110
100
AcDbEntity
8
0
100
AcDbPolyline
90
8
70
1
43
0.0
10
17.000000000000014
20
-11
42
-0.41421356237309503
10
11.000000000000014
20
-17
10
-320.5625
20
-16.999999999999996
42
-0.41421356237309437
10
-326.5625
20
-10.999999999999996
10
-326.56250000000006
20
87.200000000000003
42
-0.41421356237309853
10
-320.5625
20
93.200000000000003
10
11.000000000000012
20
93.200000000000003
42
-0.41421356237309431
10
17
20
87.200000000000003
0
LWPOLYLINE
5
111
100
AcDbEntity
8
0
100
AcDbPolyline
90
6
70
1
43
0.0
10
-98.401880832178833
20
82.087500000000006
10
-96.612094997691003
20
85.1875
10
-98.401880832178833
20
88.287500000000009
10
-101.98145250115452
20
88.287500000000009
10
-103.77123833564238
20
85.1875
10
-101.98145250115452
20
82.087500000000006
0
LWPOLYLINE
5
112
100
AcDbEntity
8
0
100
AcDbPolyline
90
6
70
1
43
0.0
10
-207.58104749884552
20
82.087500000000006
10
-205.79126166435771
20
85.1875
10
-207.58104749884555
20
88.287500000000009
10
-211.16061916782121
20
88.287500000000009
10
-212.95040500230903
20
85.1875
10
-211.16061916782121
20
82.087500000000006
0
LWPOLYLINE
5
113
100
AcDbEntity
8
0
100
AcDbPolyline
90
6
70
1
43
0.0
10
10.777285834487841
20
82.087500000000006
10
12.567071668975673
20
85.1875
10
10.777285834487833
20
88.287500000000009
10
7.1977141655121546
20
88.287500000000009
10
5.407928331024312
20
85.1875
10
7.1977141655121546
20
82.087500000000006
0
LWPOLYLINE
5
114
100
AcDbEntity
8
0
100
AcDbPolyline
90
6
70
1
43
0.0
10
-316.7602141655122
20
82.087500000000006
10
-314.97042833102438
20
85.1875
10
-316.76021416551225
20
88.287500000000009
10
-320.33978583448794
20
88.287500000000009
10
-322.12957166897576
20
85.1875
10
-320.33978583448794
20
82.087500000000006
0
LWPOLYLINE
5
115
100
AcDbEntity
8
0
100
AcDbPolyline
90
8
70
1
43
0.0
10
-114.44375000000001
20
60.174999999999997
42
-0.41421356237310542
10
-114.94374999999999
20
59.675000000000004
10
-127.94374999999999
20
59.674999999999983
42
-0.41421356237307944
10
-128.44375000000002
20
60.174999999999997
10
-128.44374999999999
20
73.174999999999997
42
-0.41421356237310025
10
-127.94375000000001
20
73.674999999999997
10
-114.94374999999999
20
73.675000000000011
42
-0.41421356237307422
10
-114.44374999999999
20
73.174999999999997
0
LWPOLYLINE
5
116
100
AcDbEntity
8
0
100
AcDbPolyline
90
8
70
1
43
0.0
10
-273.98750000000007
20
60.174999999999997
42
-0.4142135623730222
10
-274.48750000000007
20
59.675000000000004
10
-287.48750000000001
20
59.675000000000011
42
-0.41421356237312623
10
-287.98750000000001
20
60.174999999999997
10
-287.98749999999995
20
73.174999999999997
42
-0.4142135623730222
10
-287.48750000000001
20
73.674999999999997
10
-274.48750000000007
20
73.674999999999983
42
-0.41421356237312101
10
-273.98750000000001
20
73.174999999999997
0
LWPOLYLINE
5
117
100
AcDbEntity
8
0
100
AcDbPolyline
90
8
70
1
43
0.0
10
-287.48750000000001
20
40.625000000000014
42
-0.41421356237312101
10
-287.98750000000001
20
41.125
10
-287.98749999999995
20
54.125000000000007
42
-0.4142135623730222
10
-287.48750000000001
20
54.625
10
-274.48750000000007
20
54.624999999999986
42
-0.41421356237312101
10
-273.98750000000001
20
54.125000000000007
10
-273.98750000000007
20
41.125
42
-0.4142135623730222
10
-274.48750000000007
20
40.625
0
LWPOLYLINE
5
118
100
AcDbEntity
8
0
100
AcDbPolyline
90
8
70
1
43
0.0
10
-254.93750000000006
20
60.174999999999997
42
-0.4142135623730222
10
-255.43750000000003
20
59.675000000000004
10
-268.4375
20
59.675000000000011
42
-0.41421356237312623
10
-268.9375
20
60.174999999999997
10
-268.9375
20
73.174999999999997
42
-0.4142135623730222
10
-268.4375
20
73.674999999999997
10
-255.43750000000003
20
73.674999999999983
42
-0.41421356237312101
10
-254.93750000000003
20
73.174999999999997
0
LWPOLYLINE
5
119
100
AcDbEntity
8
0
100
AcDbPolyline
90
8
70
1
43
0.0
10
-202.54999999999998
20
60.174999999999997
42
-0.41421356237307422
10
-203.05000000000004
20
59.675000000000004
10
-216.05000000000004
20
59.675000000000011
42
-0.41421356237312623
10
-216.55000000000004
20
60.174999999999997
10
-216.55000000000001
20
73.174999999999997
42
-0.4142135623730222
10
-216.05000000000004
20
73.674999999999997
10
-203.05000000000004
20
73.674999999999997
42
-0.41421356237313145
10
-202.55000000000001
20
73.174999999999997
0
LWPOLYLINE
5
120
100
AcDbEntity
8
0
100
AcDbPolyline
90
8
70
1
43
0.0
10
-73.962500000000006
20
41.125
42
-0.41421356237309503
10
-74.462500000000006
20
40.625
10
-87.46250000000002
20
40.624999999999993
42
-0.41421356237307422
10
-87.96250000000002
20
41.125
10
-87.962500000000006
20
54.125000000000007
42
-0.41421356237310025
10
-87.46250000000002
20
54.625
10
-74.462500000000006
20
54.625
42
-0.41421356237309503
10
-73.962500000000006
20
54.125000000000007
0
LWPOLYLINE
5
121
100
AcDbEntity
8
0
100
AcDbPolyline
90
8
70
1
43
0.0
10
-93.012499999999989
20
41.125
42
-0.41421356237308982
10
-93.512500000000003
20
40.625
10
-106.51250000000002
20
40.624999999999993
42
-0.41421356237309503
10
-107.01250000000002
20
41.125
10
-107.01250000000002
20
54.125000000000007
42
-0.41421356237308982
10
-106.51250000000002
20
54.625
10
-93.512500000000003
20
54.625000000000014
42
-0.41421356237309503
10
-93.012499999999989
20
54.125000000000007
0
LWPOLYLINE
5
122
100
AcDbEntity
8
0
100
AcDbPolyline
90
8
70
1
43
0.0
10
-293.03750000000008
20
60.174999999999997
42
-0.4142135623730222
10
-293.53750000000002
20
59.675000000000004
10
-306.53750000000002
20
59.675000000000011
42
-0.41421356237312623
10
-307.03750000000002
20
60.174999999999997
10
-307.03750000000002
20
73.174999999999997
42
-0.4142135623730222
10
-306.53750000000002
20
73.674999999999997
10
-293.53750000000002
20
73.674999999999983
42
-0.41421356237312101
10
-293.03750000000002
20
73.174999999999997
0
LWPOLYLINE
5
123
100
AcDbEntity
8
0
100
AcDbPolyline
90
8
70
1
43
0.0
10
-254.93750000000003
20
22.074999999999999
42
-0.41421356237305079
10
-255.43750000000003
20
21.575000000000003
10
-268.4375
20
21.574999999999982
42
-0.41421356237310281
10
-268.9375
20
22.074999999999999
10
-268.9375
20
35.075000000000003
42
-0.41421356237304563
10
-268.4375
20
35.575000000000003
10
-255.43750000000003
20
35.575000000000017
42
-0.41421356237310025
10
-254.93750000000003
20
35.075000000000003
0
LWPOLYLINE
5
124
100
AcDbEntity
8
0
100
AcDbPolyline
90
8
70
1
43
0.0
10
-273.98750000000001
20
3.0249999999999999
42
-0.41421356237304624
10
-274.48750000000007
20
2.5249999999999999
10
-287.48750000000001
20
2.5249999999999817
42
-0.41421356237310153
10
-287.98750000000001
20
3.0249999999999999
10
-287.98750000000001
20
16.024999999999999
42
-0.41421356237304691
10
-287.48750000000001
20
16.525000000000002
10
-274.48750000000007
20
16.524999999999984
42
-0.41421356237312362
10
-273.98750000000001
20
16.024999999999999
0
LWPOLYLINE
5
125
100
AcDbEntity
8
0
100
AcDbPolyline
90
8
70
1
43
0.0
10
-4.9062500000000036
20
22.074999999999999
42
-0.41421356237309437
10
-5.4062499999999991
20
21.575000000000003
10
-18.406250000000011
20
21.574999999999996
42
-0.41421356237308721
10
-18.906250000000004
20
22.074999999999999
10
-18.906250000000004
20
35.075000000000003
42
-0.41421356237309631
10
-18.40625
20
35.575000000000003
10
-5.4062500000000036
20
35.575000000000003
42
-0.41421356237309764
10
-4.90625
20
35.075000000000003
0
LWPOLYLINE
5
126
100
AcDbEntity
8
0
100
AcDbPolyline
90
8
70
1
43
0.0
10
-102.53749999999999
20
22.074999999999999
42
-0.41421356237310802
10
-103.03750000000001
20
21.575000000000003
10
-116.03749999999999
20
21.574999999999992
42
-0.41421356237307422
10
-116.53750000000001
20
22.074999999999999
10
-116.53749999999999
20
35.075000000000003
42
-0.41421356237310025
10
-116.03749999999999
20
35.575000000000003
10
-103.03750000000001
20
35.575000000000003
42
-0.41421356237309243
10
-102.53749999999999
20
35.075000000000003
0
LWPOLYLINE
5
127
100
AcDbEntity
8
0
100
AcDbPolyline
90
8
70
1
43
0.0
10
-273.98750000000001
20
22.074999999999999
42
-0.41421356237305079
10
-274.48750000000007
20
21.575000000000003
10
-287.48750000000001
20
21.574999999999982
42
-0.41421356237310281
10
-287.98750000000001
20
22.074999999999999
10
-287.98750000000001
20
35.075000000000003
42
-0.41421356237304563
10
-287.48750000000001
20
35.575000000000003
10
-274.48750000000007
20
35.575000000000017
42
-0.41421356237310025
10
-273.98750000000001
20
35.075000000000003
0
LWPOLYLINE
5
128
100
AcDbEntity
8
0
100
AcDbPolyline
90
8
70
1
43
0.0
10
-121.58750000000001
20
22.074999999999999
42
-0.41421356237310802
10
-122.08750000000002
20
21.575000000000003
10
-135.08750000000001
20
21.574999999999992
42
-0.41421356237307422
10
-135.58750000000001
20
22.074999999999999
10
-135.58750000000001
20
35.075000000000003
42
-0.41421356237310025
10
-135.08750000000001
20
35.575000000000003
10
-122.08750000000002
20
35.575000000000003
42
-0.41421356237309243
10
-121.58750000000001
20
35.075000000000003
0
LWPOLYLINE
5
129
100
AcDbEntity
8
0
100
AcDbPolyline
90
8
70
1
43
0.0
10
-26.337500000000009
20
22.074999999999999
10
-26.337500000000009
20
35.075000000000003
42
0.41421356237309503
10
-26.837499999999999
20
35.575000000000003
10
-39.837499999999999
20
35.575000000000003
42
0.41421356237311324
10
-40.337500000000006
20
35.075000000000003
10
-40.337500000000006
20
22.074999999999999
42
0.41421356237310542
10
-39.837500000000006
20
21.575000000000003
10
-26.837499999999999
20
21.575000000000003
42
0.41421356237309503
0
LWPOLYLINE
5
130
100
AcDbEntity
8
0
100
AcDbPolyline
90
8
70
1
43
0.0
10
-83.487499999999983
20
22.074999999999999
42
-0.41421356237310802
10
-83.987499999999997
20
21.575000000000003
10
-96.987500000000011
20
21.574999999999992
42
-0.41421356237309503
10
-97.487500000000011
20
22.074999999999999
10
-97.487500000000011
20
35.075000000000003
42
-0.41421356237310542
10
-96.987500000000011
20
35.575000000000003
10
-83.987499999999997
20
35.575000000000003
42
-0.41421356237309243
10
-83.487499999999983
20
35.075000000000003
0
LWPOLYLINE
5
131
100
AcDbEntity
8
0
100
AcDbPolyline
90
8
70
1
43
0.0
10
-45.387500000000003
20
22.074999999999999
42
-0.41421356237309503
10
-45.887500000000003
20
21.575000000000003
10
-58.88750000000001
20
21.575000000000003
42
-0.41421356237309503
10
-59.387500000000003
20
22.074999999999999
10
-59.387500000000003
20
35.075000000000003
42
-0.41421356237309503
10
-58.88750000000001
20
35.575000000000003
10
-45.887500000000003
20
35.575000000000003
42
-0.41421356237309503
10
-45.387500000000003
20
35.075000000000003
0
LWPOLYLINE
5
132
100
AcDbEntity
8
0
100
AcDbPolyline
90
8
70
1
43
0.0
10
-64.437500000000014
20
22.074999999999999
42
-0.41421356237309764
10
-64.9375
20
21.575000000000003
10
-77.9375
20
21.575000000000003
42
-0.41421356237309503
10
-78.4375
20
22.074999999999999
10
-78.4375
20
35.075000000000003
42
-0.41421356237309503
10
-77.9375
20
35.575000000000003
10
-64.9375
20
35.575000000000003
42
-0.41421356237309764
10
-64.4375
20
35.075000000000003
0
LWPOLYLINE
5
133
100
AcDbEntity
8
0
100
AcDbPolyline
90
8
70
1
43
0.0
10
-173.1875
20
21.574999999999982
42
-0.41421356237310281
10
-173.68750000000003
20
22.074999999999999
10
-173.68750000000003
20
35.075000000000003
42
-0.41421356237304563
10
-173.1875
20
35.575000000000003
10
-160.1875
20
35.575000000000003
42
-0.41421356237309243
10
-159.6875
20
35.075000000000003
10
-159.68749999999997
20
22.074999999999999
42
-0.41421356237311846
10
-160.1875
20
21.575000000000003
0
LWPOLYLINE
5
134
100
AcDbEntity
8
0
100
AcDbPolyline
90
8
70
1
43
0.0
10
-173.97499999999997
20
3.0249999999999999
42
-0.41421356237307749
10
-174.47500000000002
20
2.5249999999999999
10
-187.47499999999999
20
2.5249999999999995
42
-0.41421356237313273
10
-187.97499999999999
20
3.0249999999999999
10
-187.97500000000002
20
16.024999999999999
42
-0.4142135623730781
10
-187.47499999999999
20
16.525000000000002
10
-174.47500000000002
20
16.525000000000002
42
-0.41421356237313406
10
-173.97500000000002
20
16.024999999999999
0
LWPOLYLINE
5
135
100
AcDbEntity
8
0
100
AcDbPolyline
90
8
70
1
43
0.0
10
-293.03750000000002
20
3.0249999999999999
42
-0.41421356237304624
10
-293.53750000000002
20
2.5249999999999999
10
-306.53750000000002
20
2.5249999999999817
42
-0.41421356237310153
10
-307.03750000000002
20
3.0249999999999999
10
-307.03750000000002
20
16.024999999999999
42
-0.41421356237304691
10
-306.53750000000002
20
16.525000000000002
10
-293.53750000000002
20
16.524999999999984
42
-0.41421356237312362
10
-293.03750000000002
20
16.024999999999999
0
LWPOLYLINE
5
136
100
AcDbEntity
8
0
100
AcDbPolyline
90
8
70
1
43
0.0
10
-135.875
20
3.0249999999999999
42
-0.41421356237307422
10
-136.375
20
2.5249999999999999
10
-149.375
20
2.5249999999999941
42
-0.41421356237309437
10
-149.875
20
3.0249999999999999
10
-149.875
20
16.024999999999999
42
-0.41421356237310675
10
-149.375
20
16.525000000000002
10
-136.375
20
16.525000000000009
42
-0.41421356237307555
10
-135.875
20
16.024999999999999
0
LWPOLYLINE
5
137
100
AcDbEntity
8
0
100
AcDbPolyline
90
8
70
1
43
0.0
10
-23.168749999999999
20
40.625
42
-0.41421356237309503
10
-23.668749999999999
20
41.125
10
-23.668749999999999
20
54.125000000000007
42
-0.41421356237309503
10
-23.168749999999999
20
54.625
10
-10.168750000000006
20
54.625
42
-0.41421356237309764
10
-9.6687499999999993
20
54.125000000000007
10
-9.6687500000000011
20
41.125
42
-0.41421356237309503
10
-10.168749999999999
20
40.625
0
LWPOLYLINE
5
138
100
AcDbEntity
8
0
100
AcDbPolyline
90
8
70
1
43
0.0
10
-221.59999999999999
20
22.074999999999999
42
-0.41421356237305079
10
-222.10000000000002
20
21.575000000000003
10
-235.10000000000002
20
21.574999999999996
42
-0.41421356237313406
10
-235.60000000000002
20
22.074999999999999
10
-235.60000000000005
20
35.075000000000003
42
-0.41421356237307683
10
-235.10000000000002
20
35.575000000000003
10
-222.10000000000002
20
35.575000000000017
42
-0.41421356237310025
10
-221.59999999999999
20
35.075000000000003
0
LWPOLYLINE
5
139
100
AcDbEntity
8
0
100
AcDbPolyline
90
8
70
1
43
0.0
10
-293.03750000000008
20
22.074999999999999
10
-293.03750000000008
20
35.075000000000003
42
0.41421356237310025
10
-293.53750000000002
20
35.57500000000001
10
-306.53750000000002
20
35.575000000000003
42
0.41421356237304563
10
-307.03750000000008
20
35.075000000000003
10
-307.03750000000002
20
22.074999999999999
42
0.41421356237310281
10
-306.53750000000002
20
21.575000000000003
10
-293.53750000000002
20
21.575000000000003
42
0.41421356237305079
0
LWPOLYLINE
5
140
100
AcDbEntity
8
0
100
AcDbPolyline
90
8
70
1
43
0.0
10
-2.5249999999999999
20
3.0249999999999999
42
-0.41421356237309437
10
-3.0249999999999999
20
2.5249999999999999
10
-16.025000000000009
20
2.5249999999999986
42
-0.41421356237308787
10
-16.525000000000002
20
3.0249999999999999
10
-16.525000000000002
20
16.024999999999999
42
-0.41421356237309243
10
-16.024999999999999
20
16.525000000000002
10
-3.0250000000000021
20
16.525000000000002
42
-0.41421356237309598
10
-2.5249999999999999
20
16.024999999999999
0
LWPOLYLINE
5
141
100
AcDbEntity
8
0
100
AcDbPolyline
90
8
70
1
43
0.0
10
-21.575000000000003
20
3.0249999999999999
42
-0.41421356237309537
10
-22.074999999999999
20
2.5249999999999999
10
-35.075000000000003
20
2.5250000000000004
42
-0.4142135623730957
10
-35.575000000000003
20
3.0249999999999999
10
-35.575000000000003
20
16.024999999999999
42
-0.41421356237309503
10
-35.075000000000003
20
16.525000000000002
10
-22.074999999999996
20
16.525000000000002
42
-0.4142135623730937
10
-21.575000000000003
20
16.024999999999999
0
LWPOLYLINE
5
142
100
AcDbEntity
8
0
100
AcDbPolyline
90
8
70
1
43
0.0
10
-116.82499999999999
20
3.0249999999999999
42
-0.41421356237310542
10
-117.32500000000002
20
2.5249999999999999
10
-130.32499999999999
20
2.5249999999999941
42
-0.41421356237309437
10
-130.82499999999999
20
3.0249999999999999
10
-130.82499999999999
20
16.024999999999999
42
-0.41421356237310675
10
-130.32499999999999
20
16.525000000000002
10
-117.32500000000002
20
16.525000000000009
42
-0.41421356237309631
10
-116.82500000000002
20
16.024999999999999
0
LWPOLYLINE
5
143
100
AcDbEntity
8
0
100
AcDbPolyline
90
8
70
1
43
0.0
10
-97.774999999999977
20
3.0249999999999999
42
-0.41421356237310542
10
-98.275000000000006
20
2.5249999999999999
10
-111.27500000000001
20
2.5249999999999941
42
-0.41421356237309437
10
-111.77500000000002
20
3.0249999999999999
10
-111.77500000000002
20
16.024999999999999
42
-0.41421356237310675
10
-111.27500000000001
20
16.525000000000002
10
-98.275000000000006
20
16.525000000000009
42
-0.41421356237309631
10
-97.775000000000006
20
16.024999999999999
0
LWPOLYLINE
5
144
100
AcDbEntity
8
0
100
AcDbPolyline
90
8
70
1
43
0.0
10
-40.625
20
3.0249999999999999
42
-0.41421356237309404
10
-41.125
20
2.5249999999999999
10
-54.125000000000007
20
2.525000000000003
42
-0.41421356237309437
10
-54.625
20
3.0249999999999999
10
-54.625
20
16.024999999999999
42
-0.4142135623730937
10
-54.125000000000007
20
16.525000000000002
10
-41.125
20
16.524999999999999
42
-0.41421356237309503
10
-40.625
20
16.024999999999999
0
LWPOLYLINE
5
145
100
AcDbEntity
8
0
100
AcDbPolyline
90
8
70
1
43
0.0
10
-59.675000000000004
20
3.0249999999999999
42
-0.41421356237309664
10
-60.174999999999997
20
2.5249999999999999
10
-73.174999999999997
20
2.525000000000003
42
-0.41421356237309437
10
-73.674999999999997
20
3.0249999999999999
10
-73.674999999999997
20
16.024999999999999
42
-0.4142135623730937
10
-73.174999999999997
20
16.525000000000002
10
-60.174999999999997
20
16.525000000000002
42
-0.41421356237309764
10
-59.675000000000004
20
16.024999999999999
0
LWPOLYLINE
5
146
100
AcDbEntity
8
0
100
AcDbPolyline
90
8
70
1
43
0.0
10
-78.724999999999994
20
3.0250000000000021
10
-78.724999999999994
20
16.024999999999999
42
0.41421356237309764
10
-79.224999999999994
20
16.524999999999999
10
-92.224999999999994
20
16.525000000000002
42
0.41421356237310675
10
-92.725000000000009
20
16.024999999999999
10
-92.725000000000009
20
3.0249999999999999
42
0.41421356237309437
10
-92.224999999999994
20
2.5250000000000039
10
-79.224999999999994
20
2.5249999999999999
42
0.41421356237309798
0
LWPOLYLINE
5
147
100
AcDbEntity
8
0
100
AcDbPolyline
90
8
70
1
43
0.0
10
-254.93750000000003
20
3.0249999999999999
42
-0.41421356237304624
10
-255.43750000000003
20
2.5249999999999999
10
-268.4375
20
2.5249999999999817
42
-0.41421356237310153
10
-268.9375
20
3.0249999999999999
10
-268.9375
20
16.024999999999999
42
-0.41421356237304691
10
-268.4375
20
16.525000000000002
10
-255.43750000000003
20
16.524999999999984
42
-0.41421356237312362
10
-254.93750000000003
20
16.024999999999999
0
LWPOLYLINE
5
148
100
AcDbEntity
8
0
100
AcDbPolyline
90
8
70
1
43
0.0
10
-154.92500000000001
20
3.0249999999999999
42
-0.41421356237307422
10
-155.42500000000001
20
2.5249999999999999
10
-168.42500000000001
20
2.5249999999999817
42
-0.41421356237310153
10
-168.92500000000001
20
3.0249999999999999
10
-168.92500000000001
20
16.024999999999999
42
-0.41421356237304691
10
-168.42500000000001
20
16.525000000000002
10
-155.42500000000001
20
16.525000000000009
42
-0.41421356237307555
10
-154.92500000000001
20
16.024999999999999
0
LWPOLYLINE
5
149
100
AcDbEntity
8
0
100
AcDbPolyline
90
8
70
1
43
0.0
10
-219.21875
20
3.0250000000000021
10
-219.21875
20
16.024999999999999
42
0.41421356237313406
10
-219.71875
20
16.525000000000006
10
-232.71875
20
16.525000000000002
42
0.41421356237304691
10
-233.21875000000003
20
16.024999999999999
10
-233.21875000000003
20
3.0249999999999999
42
0.41421356237310153
10
-232.71875
20
2.5250000000000039
10
-219.71875
20
2.5249999999999999
42
0.41421356237307877
0
LWPOLYLINE
5
150
100
AcDbEntity
8
0
100
AcDbPolyline
90
8
70
1
43
0.0
10
-206.52500000000003
20
2.5249999999999817
42
-0.41421356237310153
10
-207.02500000000003
20
3.0249999999999999
10
-207.02500000000003
20
16.024999999999999
42
-0.41421356237304691
10
-206.52500000000003
20
16.525000000000002
10
-193.52500000000003
20
16.525000000000002
42
-0.41421356237313406
10
-193.02500000000003
20
16.024999999999999
10
-193.02499999999998
20
3.0250000000000021
42
-0.41421356237307877
10
-193.52500000000003
20
2.5249999999999999
0
LWPOLYLINE
5
151
100
AcDbEntity
8
0
100
AcDbPolyline
90
8
70
1
43
0.0
10
-140.63749999999999
20
22.074999999999999
42
-0.41421356237310802
10
-141.13749999999999
20
21.575000000000003
10
-154.13749999999999
20
21.574999999999992
42
-0.41421356237309503
10
-154.63750000000002
20
22.074999999999999
10
-154.63750000000002
20
35.075000000000003
42
-0.41421356237310542
10
-154.13749999999999
20
35.575000000000003
10
-141.13749999999999
20
35.575000000000003
42
-0.41421356237309243
10
-140.63749999999999
20
35.075000000000003
0
LWPOLYLINE
5
152
100
AcDbEntity
8
0
100
AcDbPolyline
90
8
70
1
43
0.0
10
-178.73750000000001
20
22.074999999999999
42
-0.41421356237308204
10
-179.23750000000001
20
21.575000000000003
10
-192.23750000000001
20
21.574999999999982
42
-0.41421356237310281
10
-192.73750000000004
20
22.074999999999999
10
-192.73750000000004
20
35.075000000000003
42
-0.41421356237304563
10
-192.23750000000001
20
35.575000000000003
10
-179.23750000000001
20
35.575000000000003
42
-0.41421356237313145
10
-178.73750000000001
20
35.075000000000003
0
LWPOLYLINE
5
153
100
AcDbEntity
8
0
100
AcDbPolyline
90
8
70
1
43
0.0
10
-131.11250000000001
20
41.125
42
-0.41421356237308982
10
-131.61250000000001
20
40.625
10
-144.61250000000001
20
40.624999999999993
42
-0.41421356237307422
10
-145.11250000000001
20
41.125
10
-145.11250000000001
20
54.125000000000007
42
-0.41421356237310025
10
-144.61250000000001
20
54.625
10
-131.61250000000001
20
54.625000000000014
42
-0.41421356237309503
10
-131.11250000000001
20
54.125000000000007
0
LWPOLYLINE
5
154
100
AcDbEntity
8
0
100
AcDbPolyline
90
8
70
1
43
0.0
10
-35.862500000000004
20
41.125
42
-0.41421356237309503
10
-36.362499999999997
20
40.625
10
-49.362500000000004
20
40.625
42
-0.41421356237309503
10
-49.862499999999997
20
41.125
10
-49.862499999999997
20
54.125000000000007
42
-0.41421356237309503
10
-49.362500000000004
20
54.625
10
-36.362500000000004
20
54.625
42
-0.41421356237309764
10
-35.862500000000004
20
54.125000000000007
0
LWPOLYLINE
5
155
100
AcDbEntity
8
0
100
AcDbPolyline
90
8
70
1
43
0.0
10
-188.26250000000002
20
41.125
42
-0.4142135623730222
10
-188.76249999999999
20
40.625
10
-201.76249999999999
20
40.625
42
-0.41421356237313145
10
-202.26249999999999
20
41.125
10
-202.26250000000005
20
54.125000000000007
42
-0.41421356237307422
10
-201.76249999999999
20
54.625
10
-188.76249999999999
20
54.624999999999986
42
-0.41421356237312101
10
-188.26249999999999
20
54.125000000000007
0
LWPOLYLINE
5
156
100
AcDbEntity
8
0
100
AcDbPolyline
90
8
70
1
43
0.0
10
-26.337500000000009
20
60.174999999999997
10
-26.337500000000009
20
73.174999999999997
42
0.41421356237309503
10
-26.837499999999999
20
73.674999999999997
10
-39.837499999999999
20
73.674999999999997
42
0.41421356237311324
10
-40.337499999999991
20
73.174999999999997
10
-40.337500000000006
20
60.174999999999997
42
0.41421356237308982
10
-39.837500000000006
20
59.675000000000004
10
-26.837499999999999
20
59.675000000000004
42
0.41421356237309764
0
LWPOLYLINE
5
157
100
AcDbEntity
8
0
100
AcDbPolyline
90
8
70
1
43
0.0
10
-150.16249999999999
20
41.125
42
-0.41421356237308982
10
-150.66249999999999
20
40.625
10
-163.66250000000002
20
40.625000000000014
42
-0.41421356237312101
10
-164.16250000000002
20
41.125
10
-164.16249999999997
20
54.125000000000007
42
-0.4142135623730222
10
-163.66250000000002
20
54.625
10
-150.66249999999999
20
54.625000000000014
42
-0.41421356237309503
10
-150.16249999999999
20
54.125000000000007
0
LWPOLYLINE
5
158
100
AcDbEntity
8
0
100
AcDbPolyline
90
8
70
1
43
0.0
10
-207.31250000000003
20
41.125
42
-0.4142135623730222
10
-207.8125
20
40.625
10
-220.8125
20
40.625
42
-0.41421356237313145
10
-221.3125
20
41.125
10
-221.31250000000006
20
54.125000000000007
42
-0.41421356237307422
10
-220.8125
20
54.625
10
-207.8125
20
54.624999999999986
42
-0.41421356237312101
10
-207.3125
20
54.125000000000007
0
LWPOLYLINE
5
159
100
AcDbEntity
8
0
100
AcDbPolyline
90
8
70
1
43
0.0
10
-4.9062500000000009
20
60.174999999999997
42
-0.4142135623730957
10
-5.4062499999999991
20
59.675000000000004
10
-18.406250000000011
20
59.675000000000004
42
-0.41421356237309115
10
-18.906250000000004
20
60.174999999999997
10
-18.90625
20
73.174999999999997
42
-0.41421356237309503
10
-18.40625
20
73.674999999999997
10
-5.4062500000000036
20
73.674999999999997
42
-0.41421356237309631
10
-4.90625
20
73.174999999999997
0
LWPOLYLINE
5
160
100
AcDbEntity
8
0
100
AcDbPolyline
90
8
70
1
43
0.0
10
-254.93750000000006
20
41.125
42
-0.4142135623730222
10
-255.43750000000003
20
40.625
10
-268.4375
20
40.625000000000014
42
-0.41421356237312101
10
-268.9375
20
41.125
10
-268.9375
20
54.125000000000007
42
-0.4142135623730222
10
-268.4375
20
54.625
10
-255.43750000000003
20
54.624999999999986
42
-0.41421356237312101
10
-254.93750000000003
20
54.125000000000007
0
LWPOLYLINE
5
161
100
AcDbEntity
8
0
100
AcDbPolyline
90
8
70
1
43
0.0
10
-169.21249999999998
20
41.125
42
-0.41421356237307422
10
-169.71250000000001
20
40.625
10
-182.71250000000003
20
40.625000000000014
42
-0.41421356237312101
10
-183.21250000000003
20
41.125
10
-183.21249999999998
20
54.125000000000007
42
-0.4142135623730222
10
-182.71250000000003
20
54.625
10
-169.71250000000001
20
54.625
42
-0.41421356237313145
10
-169.21250000000001
20
54.125000000000007
0
LWPOLYLINE
5
162
100
AcDbEntity
8
0
100
AcDbPolyline
90
8
70
1
43
0.0
10
-68.412499999999994
20
40.625
42
-0.41421356237309503
10
-68.912499999999994
20
41.125
10
-68.912499999999994
20
54.125000000000007
42
-0.41421356237309503
10
-68.412499999999994
20
54.625
10
-55.412500000000009
20
54.625
42
-0.41421356237309503
10
-54.912500000000009
20
54.125000000000007
10
-54.912500000000009
20
41.125
42
-0.41421356237309503
10
-55.412500000000009
20
40.625
0
LWPOLYLINE
5
163
100
AcDbEntity
8
0
100
AcDbPolyline
90
8
70
1
43
0.0
10
-293.03750000000008
20
41.125
42
-0.4142135623730222
10
-293.53750000000002
20
40.625
10
-306.53750000000002
20
40.625000000000014
42
-0.41421356237312101
10
-307.03750000000002
20
41.125
10
-307.03750000000002
20
54.125000000000007
42
-0.4142135623730222
10
-306.53750000000002
20
54.625
10
-293.53750000000002
20
54.624999999999986
42
-0.41421356237312101
10
-293.03750000000002
20
54.125000000000007
0
LWPOLYLINE
5
164
100
AcDbEntity
8
0
100
AcDbPolyline
90
8
70
1
43
0.0
10
-226.36250000000004
20
41.125
42
-0.4142135623730222
10
-226.86250000000001
20
40.625
10
-239.86250000000001
20
40.625
42
-0.41421356237313145
10
-240.36250000000001
20
41.125
10
-240.36250000000007
20
54.125000000000007
42
-0.41421356237307422
10
-239.86250000000001
20
54.625
10
-226.86250000000001
20
54.624999999999986
42
-0.41421356237312101
10
-226.36250000000001
20
54.125000000000007
0
LWPOLYLINE
5
165
100
AcDbEntity
8
0
100
AcDbPolyline
90
8
70
1
43
0.0
10
-125.5625
20
40.624999999999993
42
-0.41421356237307422
10
-126.06250000000001
20
41.125
10
-126.0625
20
54.125000000000007
42
-0.41421356237310025
10
-125.5625
20
54.625
10
-112.56250000000001
20
54.625000000000014
42
-0.41421356237309503
10
-112.0625
20
54.125000000000007
10
-112.0625
20
41.125
42
-0.41421356237308982
10
-112.56250000000001
20
40.625
0
LWPOLYLINE
5
166
100
AcDbEntity
8
0
100
AcDbPolyline
90
8
70
1
43
0.0
10
-183.5
20
60.174999999999997
10
-183.5
20
73.174999999999997
42
0.41421356237313145
10
-184.00000000000003
20
73.674999999999997
10
-197.00000000000003
20
73.674999999999997
42
0.4142135623730222
10
-197.50000000000003
20
73.174999999999997
10
-197.50000000000003
20
60.174999999999997
42
0.41421356237312623
10
-197.00000000000003
20
59.675000000000004
10
-184.00000000000003
20
59.675000000000004
42
0.41421356237307422
0
LWPOLYLINE
5
167
100
AcDbEntity
8
0
100
AcDbPolyline
90
8
70
1
43
0.0
10
-223.98124999999996
20
60.174999999999997
42
-0.41421356237307422
10
-224.48125000000002
20
59.675000000000004
10
-237.48125000000002
20
59.675000000000011
42
-0.41421356237312623
10
-237.98125000000002
20
60.174999999999997
10
-237.98124999999999
20
73.174999999999997
42
-0.4142135623730222
10
-237.48125000000002
20
73.674999999999997
10
-224.48125000000002
20
73.674999999999997
42
-0.41421356237313145
10
-223.98124999999999
20
73.174999999999997
0
LWPOLYLINE
5
168
100
AcDbEntity
8
0
100
AcDbPolyline
90
8
70
1
43
0.0
10
-58.88750000000001
20
59.675000000000004
42
-0.41421356237309503
10
-59.387500000000003
20
60.174999999999997
10
-59.387500000000003
20
73.174999999999997
42
-0.41421356237309503
10
-58.88750000000001
20
73.674999999999997
10
-45.887500000000003
20
73.674999999999997
42
-0.41421356237309503
10
-45.387500000000003
20
73.174999999999997
10
-45.387500000000003
20
60.174999999999997
42
-0.41421356237309503
10
-45.887500000000003
20
59.675000000000004
0
LWPOLYLINE
5
169
100
AcDbEntity
8
0
100
AcDbPolyline
90
8
70
1
43
0.0
10
-197.78749999999999
20
22.074999999999999
42
-0.41421356237305079
10
-198.28749999999999
20
21.575000000000003
10
-211.28749999999999
20
21.574999999999996
42
-0.41421356237313406
10
-211.78750000000002
20
22.074999999999999
10
-211.78750000000005
20
35.075000000000003
42
-0.41421356237307683
10
-211.28749999999999
20
35.575000000000003
10
-198.28749999999999
20
35.575000000000017
42
-0.41421356237310025
10
-197.78749999999999
20
35.075000000000003
0
ENDSEC
0
SECTION
2
OBJECTS
0
DICTIONARY
5
C
100
AcDbDictionary
3
ACAD_GROUP
350
D
3
ACAD_MLINESTYLE
350
17
0
DICTIONARY
5
D
100
AcDbDictionary
0
DICTIONARY
5
1A
330
C
100
AcDbDictionary
0
DICTIONARY
5
17
100
AcDbDictionary
0
ENDSEC
0
EOF
