0
SECTION
2
HEADER
9
$INSUNITS
70
4
9
$ACADVER
1
AC1014
9
$HANDSEED
5
FFFF
0
ENDSEC
0
SECTION
2
TABLES
0
TABLE
2
VPORT
5
8
100
AcDbSymbolTable
0
ENDTAB
0
TABLE
2
LTYPE
5
5
100
AcDbSymbolTable
0
LTYPE
5
14
100
AcDbSymbolTableRecord
100
AcDbLinetypeTableRecord
2
BYBLOCK
70
0
0
LTYPE
5
15
100
AcDbSymbolTableRecord
100
AcDbLinetypeTableRecord
2
BYLAYER
70
0
0
ENDTAB
0
TABLE
2
LAYER
5
2
100
AcDbSymbolTable
70
2
0
LAYER
5
50
100
AcDbSymbolTableRecord
100
AcDbLayerTableRecord
2
0
70
0
6
CONTINUOUS
0
ENDTAB
0
TABLE
2
STYLE
5
3
100
AcDbSymbolTable
70
1
0
STYLE
5
11
100
AcDbSymbolTableRecord
100
AcDbTextStyleTableRecord
2
STANDARD
70
0
0
ENDTAB
0
TABLE
2
VIEW
5
6
100
AcDbSymbolTable
70
0
0
ENDTAB
0
TABLE
2
UCS
5
7
100
AcDbSymbolTable
70
0
0
ENDTAB
0
TABLE
2
APPID
5
9
100
AcDbSymbolTable
70
2
0
APPID
5
12
100
AcDbSymbolTableRecord
100
AcDbRegAppTableRecord
2
ACAD
70
0
0
ENDTAB
0
TABLE
2
DIMSTYLE
5
A
100
AcDbSymbolTable
70
1
0
ENDTAB
0
TABLE
2
BLOCK_RECORD
5
1
100
AcDbSymbolTable
70
1
0
BLOCK_RECORD
5
1F
100
AcDbSymbolTableRecord
100
AcDbBlockTableRecord
2
*MODEL_SPACE
0
BLOCK_RECORD
5
1B
100
AcDbSymbolTableRecord
100
AcDbBlockTableRecord
2
*PAPER_SPACE
0
ENDTAB
0
ENDSEC
0
SECTION
2
BLOCKS
0
BLOCK
5
20
100
AcDbEntity
100
AcDbBlockBegin
2
*MODEL_SPACE
0
ENDBLK
5
21
100
AcDbEntity
100
AcDbBlockEnd
0
BLOCK
5
1C
100
AcDbEntity
100
AcDbBlockBegin
2
*PAPER_SPACE
0
ENDBLK
5
1D
100
AcDbEntity
100
AcDbBlockEnd
0
ENDSEC
0
SECTION
2
ENTITIES
0
LWPOLYLINE
5
100
100
AcDbEntity
8
0
100
AcDbPolyline
90
20
70
1
43
0.0
10
-257.25737851440539
20
-4.1374999999999895
10
-257.25737851440533
20
-17
10
-320.5625
20
-16.999999999999996
42
-0.41421356237309437
10
-326.5625
20
-10.999999999999996
10
-326.56250000000006
20
87.200000000000003
42
-0.41421356237309853
10
-320.5625
20
93.200000000000003
10
11.000000000000012
20
93.200000000000003
42
-0.41421356237309431
10
17
20
87.200000000000003
10
17.000000000000014
20
-11
42
-0.41421356237309503
10
11.000000000000014
20
-17
10
-237.2573785144055
20
-17
10
-237.2573785144055
20
-4.1374999999999886
10
4.407500000000022
20
-4.1375000000000064
42
0.41421356237309537
10
5.4075000000000006
20
-3.1375000000000064
10
5.4075000000000131
20
79.837500000000006
42
0.41421356237309503
10
4.4075000000000131
20
80.837500000000006
10
-313.97000000000003
20
80.837500000000006
42
0.41421356237309503
10
-314.97000000000008
20
79.837500000000006
10
-314.97000000000003
20
-3.1375000000000064
42
0.41421356237309404
10
-313.97000000000003
20
-4.1374999999999886
0
LWPOLYLINE
5
101
100
AcDbEntity
8
0
100
AcDbPolyline
90
6
70
1
43
0.0
10
-101.98145250115448
20
-12.087500000000059
10
-98.401880832178804
20
-12.087500000000059
10
-96.612094997690988
20
-8.987500000000054
10
-98.401880832178819
20
-5.8875000000000499
10
-101.98145250115451
20
-5.8875000000000499
10
-103.77123833564235
20
-8.987500000000054
0
LWPOLYLINE
5
102
100
AcDbEntity
8
0
100
AcDbPolyline
90
6
70
1
43
0.0
10
-211.16061916782118
20
-12.08750000000013
10
-207.58104749884552
20
-12.08750000000013
10
-205.79126166435768
20
-8.9875000000001073
10
-207.58104749884549
20
-5.887500000000121
10
-211.16061916782118
20
-5.887500000000121
10
-212.950405002309
20
-8.9875000000001251
0
LWPOLYLINE
5
103
100
AcDbEntity
8
0
100
AcDbPolyline
90
6
70
1
43
0.0
10
5.4079283310243387
20
-8.9875000000000007
10
7.1977141655121821
20
-12.087500000000006
10
10.777285834487863
20
-12.087500000000006
10
12.5670716689757
20
-8.9875000000000007
10
10.777285834487866
20
-5.8874999999999966
10
7.1977141655121795
20
-5.8874999999999966
0
LWPOLYLINE
5
104
100
AcDbEntity
8
0
100
AcDbPolyline
90
6
70
1
43
0.0
10
-320.33978583448794
20
-5.8875000000001743
10
-322.12957166897576
20
-8.9875000000001783
10
-320.33978583448794
20
-12.087500000000183
10
-316.7602141655122
20
-12.087500000000183
10
-314.97042833102432
20
-8.9875000000001783
10
-316.76021416551214
20
-5.8875000000001743
0
LWPOLYLINE
5
105
100
AcDbEntity
8
0
100
AcDbPolyline
90
6
70
1
43
0.0
10
-98.401880832178833
20
82.087500000000006
10
-96.612094997691003
20
85.1875
10
-98.401880832178833
20
88.287500000000009
10
-101.98145250115452
20
88.287500000000009
10
-103.77123833564238
20
85.1875
10
-101.98145250115452
20
82.087500000000006
0
LWPOLYLINE
5
106
100
AcDbEntity
8
0
100
AcDbPolyline
90
6
70
1
43
0.0
10
-207.58104749884552
20
82.087500000000006
10
-205.79126166435771
20
85.1875
10
-207.58104749884555
20
88.287500000000009
10
-211.16061916782121
20
88.287500000000009
10
-212.95040500230903
20
85.1875
10
-211.16061916782121
20
82.087500000000006
0
LWPOLYLINE
5
107
100
AcDbEntity
8
0
100
AcDbPolyline
90
6
70
1
43
0.0
10
10.777285834487841
20
82.087500000000006
10
12.567071668975673
20
85.1875
10
10.777285834487833
20
88.287500000000009
10
7.1977141655121546
20
88.287500000000009
10
5.407928331024312
20
85.1875
10
7.1977141655121546
20
82.087500000000006
0
LWPOLYLINE
5
108
100
AcDbEntity
8
0
100
AcDbPolyline
90
6
70
1
43
0.0
10
-316.7602141655122
20
82.087500000000006
10
-314.97042833102438
20
85.1875
10
-316.76021416551225
20
88.287500000000009
10
-320.33978583448794
20
88.287500000000009
10
-322.12957166897576
20
85.1875
10
-320.33978583448794
20
82.087500000000006
0
ENDSEC
0
SECTION
2
OBJECTS
0
DICTIONARY
5
C
100
AcDbDictionary
3
ACAD_GROUP
350
D
3
ACAD_MLINESTYLE
350
17
0
DICTIONARY
5
D
100
AcDbDictionary
0
DICTIONARY
5
1A
330
C
100
AcDbDictionary
0
DICTIONARY
5
17
100
AcDbDictionary
0
ENDSEC
0
EOF
